<?xml version="1.0" encoding="UTF-8"?>
<svg width="512" height="512" fill="none" version="1.1" viewBox="0 0 512 512" xmlns="http://www.w3.org/2000/svg">
 <g clip-path="url(#clip0_525_5)">
  <path d="m503.9 7.9013h-496v496h496v-496z" stroke="#fff" stroke-width="16"/>
  <g transform="translate(-.08 -30.822)" fill="#fff">
   <path d="m357.85 175.8-132 131.99 123 123 11.309-11.309-111.68-111.69 120.68-120.68z"/>
   <path d="m405.85 175.8-132 131.99 122.62 122.62 11.309-11.309-111.31-111.32 120.68-120.68z"/>
   <path d="m95 171.51 11.313 11.312 79.197-79.195 79.195 79.195 11.315-11.312-90.51-90.51z"/>
   <path d="m95 219.51 11.312 11.312 79.198-79.195 79.195 79.195 11.315-11.312-90.51-90.51z"/>
   <path d="m193.51 430.82h16v-239.2l-16-16z"/>
   <path d="m161.51 430.82h16v-255.2l-16 16z"/>
  </g>
 </g>
 <defs>
  <clipPath id="clip0_525_5">
   <rect width="512" height="512" fill="#fff"/>
  </clipPath>
 </defs>
</svg>
